<svg xmlns="http://www.w3.org/2000/svg" width="180" height="180" viewBox="0 0 180 180"><g transform="translate(-105 -144)"><path d="M0,0H180V180H0Z" transform="translate(105 144)" fill="rgba(255,255,255,0)" opacity="0"/><g transform="translate(298.914 325.379)"><path d="M-133.914-103.378v18.943c.624-.222,2.9-1.246,3.749-1.682a4.94,4.94,0,0,1,4.785-4.247c4.5-.219,5.037,2.875,6.773,7.029a30.669,30.669,0,0,0,4.681,7.31c4.014-9.337,8.494-13.925,12.66-17.345a46.75,46.75,0,0,1,20.19-9.016v-.992Z" transform="translate(0 0)" fill="#ccc"/><path d="M-74.624-103.378c-.373,2.671-6.117,17.87-12.26,24.851a24.524,24.524,0,0,1-19.436,8.281,27.756,27.756,0,0,0,14.371,4.752c6.024.231,8.581-.9,11.52-1.511v5.8a44.822,44.822,0,0,1-25.041,5.994c-11.938-.452-19.636-4.315-22.224-15.174-1.241-5.294,1.023-8.605-1.475-11.865-.963-1.171-3.24-1.3-4.739-1.361l-.006,40.212h60v-59.976Z" transform="translate(0 0)" fill="#ccc"/></g><text transform="translate(115 204)" fill="#999" font-size="20" font-family="HiraginoSans-W3, Hiragino Sans" opacity="0.996"><tspan x="0" y="0">画像はありません</tspan></text></g></svg>