<svg xmlns="http://www.w3.org/2000/svg" width="248.01" height="19.991" viewBox="0 0 248.01 19.991"><g transform="translate(-0.1 -0.06)"><g transform="translate(0.1 0.051)"><path d="M13.91,1.5h6.73a13.33,13.33,0,0,1-6.36,10.28l-1.47,8.08H6.07l1.19-6.8H0L.88,8.29H6.34a8.469,8.469,0,0,0,7.57-6.8" fill="#e60012"/><path d="M37.82,8.54l-1.01,5.25h8.15l1-5.25Z" fill="#e60012"/><path d="M65.26,8.54l-1.01,5.25H72.4l1.01-5.25Z" fill="#e60012"/><path d="M110.44,8.54l-1.02,5.25h8.15l1.01-5.25Z" fill="#e60012"/><path d="M31.22,8.54c-1.79-.2-2.83-1.35-2.74-1.72l.98-5.32H22.77L19.5,19.83h6.69l1.33-7.57a8.949,8.949,0,0,0,4.33,1.52H35.6l1.04-5.25H31.22Z" fill="#e60012"/><path d="M103.95,8.54c-1.79-.2-2.83-1.35-2.75-1.72l.98-5.32H95.5L92.23,19.83h6.69l1.33-7.57a8.948,8.948,0,0,0,4.34,1.52h3.75l1.03-5.25h-5.41Z" fill="#e60012"/><path d="M47.85,2.11l-.77,4.05H58.12l-.44,2.38H47.15l-.72,3.96H56.95L56.49,15H45.48l-.73,4.1h17.2l3.14-17Z" fill="#e60012"/><path d="M83.67,3.7,84.19.62H78.41L77.89,3.7H74.58l-.77,4.25h3.36l-.22,1.3a8.383,8.383,0,0,1-4.18,5.9l-.73,4.55a11.158,11.158,0,0,0,6.52-2.72,14.008,14.008,0,0,0,4.17-7.74l.22-1.3h3.14l-.99,5.65c-.19.89-.49,1.56-1.28,1.56H82.27l-.79,4.38h4.74a4.311,4.311,0,0,0,4.02-3.71L92.42,3.68H83.67Z" fill="#e60012"/><path d="M103.66,1.53l-.61,3.55h2.74l.61-3.55Z" fill="#e60012"/><path d="M107.42,1.53l-.61,3.55h2.74l.61-3.55Z" fill="#e60012"/><path d="M143.22,17.31l-5.86-2.47V12.02a21.049,21.049,0,0,1-1.84,1.23v6.54h-4.68V15.48q-1.62.57-3.45,1.02a38.575,38.575,0,0,1-3.87.73V12.52a26.1,26.1,0,0,0,8.11-2.13,12.2,12.2,0,0,0,5.14-3.82h-13.4V1.99h7.46V.59h4.68v1.4h7v2.8a5.226,5.226,0,0,1-.76,2.28,14.228,14.228,0,0,1-2.76,3.52l4.22,1.77v4.95Z" fill="#00a95f"/><path d="M148.77,14.07h-3.75l-.61-6.66h3.64Zm10.68-3.63q0,4.485-2.21,6.66-2.475,2.445-8.06,2.44h-4.32V16.23h4.32q3.735,0,5.13-1.41c.82-.83,1.23-2.29,1.23-4.37V7.14h3.9v3.31Zm-5.85,3.63h-3.75l-.56-6.66h3.62l.7,6.66Z" fill="#00a95f"/><path d="M178.43,13.5a39.147,39.147,0,0,1-7.06-.61,24.851,24.851,0,0,1-5.59-1.62v8.56h-4.69V.59h4.69V6.37a22.158,22.158,0,0,0,6.31,1.88,37.7,37.7,0,0,0,6.35.59V13.5Z" fill="#00a95f"/><path d="M198.26,20l-6.73-4.57a20.674,20.674,0,0,1-5.79,3.07,22.021,22.021,0,0,1-7.2,1.2V15.15a17.57,17.57,0,0,0,5.92-1.03,12.768,12.768,0,0,0,5.12-3.09,7.269,7.269,0,0,0,2.16-5.21h-12.5V1.23h17.55V6.17a8.713,8.713,0,0,1-.5,2.9,13.888,13.888,0,0,1-1.4,2.81l3.38,2.25v5.86Z" fill="#00a95f"/><rect width="13.44" height="4.92" transform="translate(199.9 8.4)" fill="#00a95f"/><path d="M221.46,1.07a57.11,57.11,0,0,1-1.01,8.8,71.439,71.439,0,0,1-2.33,9.91h-4.83a82.106,82.106,0,0,0,2.42-10.02,52.689,52.689,0,0,0,1.02-8.69h4.74Zm11.69,18.71h-4.76a42.23,42.23,0,0,0-.6-6.65c-.32-1.85-.81-4.04-1.47-6.55q-.72-2.715-1.62-5.51h3.01a2.613,2.613,0,0,0-.31,1.38,3.327,3.327,0,0,0,.93,2.42,3.34,3.34,0,0,0,2.52.95c.51,2.12.87,3.65,1.08,4.6q.54,2.52.87,4.92a31.335,31.335,0,0,1,.34,4.45m.26-17.31a2.277,2.277,0,0,1-.73,1.71,2.6,2.6,0,0,1-3.55,0,2.221,2.221,0,0,1-.74-1.71A2.393,2.393,0,0,1,229.1.73a2.442,2.442,0,0,1,1.8-.72,2.471,2.471,0,0,1,1.77.72,2.364,2.364,0,0,1,.73,1.75m-1.59,0a.82.82,0,0,0-.27-.61.917.917,0,0,0-.64-.26.948.948,0,0,0-.65.25.811.811,0,0,0-.27.62.8.8,0,0,0,.27.6.931.931,0,0,0,.65.25.9.9,0,0,0,.63-.25.787.787,0,0,0,.29-.6" fill="#00a95f"/><rect width="13.72" height="4.92" transform="translate(234.29 8.4)" fill="#00a95f"/></g></g></svg>