<?xml version="1.0" encoding="UTF-8"?><svg id="_イヤー_2" xmlns="http://www.w3.org/2000/svg" viewBox="0 0 409.22 33"><g id="_イヤー_1-2"><g id="app-logo-iyns-top"><g><path d="M22.95,2.48h11.1c-.43,3.82-2.07,11.88-10.5,16.97l-2.42,13.33H10.01l1.97-11.21H0l1.45-7.86H10.46c3.88-.12,10.5-3.03,12.49-11.22" fill="#e60012"/><polygon points="62.4 14.09 60.74 22.75 74.18 22.75 75.84 14.09 62.4 14.09" fill="#e60012"/><polygon points="107.69 14.09 106.02 22.75 119.46 22.75 121.13 14.09 107.69 14.09" fill="#e60012"/><polygon points="182.22 14.09 180.55 22.75 193.99 22.75 195.66 14.09 182.22 14.09" fill="#e60012"/><path d="M51.51,14.09c-2.95-.33-4.67-2.23-4.53-2.84l1.61-8.77h-11.03l-5.39,30.25h11.03l2.2-12.49c1.94,1.35,5.08,2.51,7.15,2.51h6.19l1.71-8.66h-8.95Z" fill="#e60012"/><path d="M171.51,14.09c-2.96-.33-4.67-2.23-4.54-2.84l1.62-8.77h-11.03l-5.4,30.25h11.03l2.2-12.49c1.94,1.35,5.09,2.51,7.15,2.51h6.18l1.7-8.66h-8.93Z" fill="#e60012"/><polygon points="78.95 3.48 77.69 10.16 95.9 10.16 95.18 14.09 77.8 14.09 76.61 20.62 93.97 20.62 93.2 24.75 75.05 24.75 73.84 31.52 102.22 31.51 107.4 3.47 78.95 3.48" fill="#e60012"/><path d="M138.06,6.1l.86-5.07h-9.54l-.86,5.07h-5.45l-1.28,7.01h5.55l-.36,2.14c-.75,3.55-2.57,7.34-6.89,9.74l-1.21,7.51c3.64,0,7.88-2.06,10.75-4.49,2.12-1.79,5.9-6.71,6.88-12.76l.37-2.14h5.17l-1.63,9.32c-.32,1.48-.8,2.58-2.11,2.58h-2.56l-1.31,7.23,7.83-.02c3.96-.16,5.98-3.11,6.63-6.11l3.6-20.03h-14.44Z" fill="#e60012"/><polygon points="171.04 2.52 170.03 8.39 174.56 8.39 175.56 2.52 171.04 2.52" fill="#e60012"/><polygon points="177.24 2.52 176.23 8.39 180.76 8.39 181.77 2.52 177.24 2.52" fill="#e60012"/></g><g><path d="M236.31,28.57l-9.66-4.08v-4.66c-1.04,.77-2.05,1.44-3.04,2.02v10.8h-7.73v-7.11c-1.78,.63-3.68,1.19-5.69,1.68-2.01,.49-4.13,.9-6.38,1.21v-7.77c4.88-.5,9.35-1.68,13.38-3.52,4.04-1.84,6.86-3.94,8.48-6.3h-22.11V3.29h12.31V.98h7.73V3.29h11.55V7.91c0,.94-.42,2.19-1.26,3.76-1.09,2.02-2.6,3.96-4.55,5.81l6.96,2.93v8.16Z" fill="#00a95f"/><path d="M245.47,23.21h-6.19l-1.01-11h6.01l1.19,11Zm17.62-5.99c0,4.94-1.21,8.6-3.64,11-2.73,2.68-7.15,4.02-13.29,4.02h-7.13v-5.47h7.13c4.11,0,6.93-.78,8.47-2.33,1.35-1.37,2.03-3.78,2.03-7.22v-5.47h6.44v5.47Zm-9.65,5.99h-6.19l-.93-11h5.97l1.15,11Z" fill="#00a95f"/><path d="M294.41,22.28c-4.07,0-7.95-.34-11.65-1.01-3.68-.67-6.75-1.57-9.23-2.67v14.12h-7.74V.98h7.74V10.51c2.5,1.3,5.96,2.33,10.4,3.11,3.75,.65,7.24,.97,10.48,.97v7.69Z" fill="#00a95f"/><path d="M327.12,33l-11.1-7.54c-2.82,2.14-5.99,3.83-9.56,5.06-3.84,1.32-7.81,1.99-11.88,1.99v-7.51c3.31,0,6.57-.56,9.78-1.7,3.58-1.25,6.4-2.95,8.44-5.09,2.37-2.46,3.56-5.32,3.56-8.6h-20.63V2.02h28.96V10.18c0,1.64-.28,3.23-.83,4.78-.55,1.55-1.32,3.1-2.32,4.64l5.58,3.72v9.68Z" fill="#00a95f"/><rect x="329.83" y="13.87" width="22.17" height="8.12" fill="#00a95f"/><path d="M365.41,1.77c0,3.25-.55,8.09-1.67,14.52-1.18,6.79-2.47,12.24-3.85,16.36h-7.97c1.54-4.82,2.86-10.33,3.99-16.54,1.12-6.21,1.69-10.99,1.69-14.34h7.81Zm19.3,30.88h-7.85c0-3.32-.34-6.98-.99-10.98-.53-3.06-1.34-6.66-2.42-10.8-.79-2.98-1.68-6.02-2.67-9.1h4.96c-.34,.56-.52,1.31-.52,2.28,0,1.61,.51,2.94,1.54,3.99,1.02,1.05,2.41,1.57,4.16,1.57,.84,3.49,1.43,6.02,1.79,7.58,.59,2.77,1.07,5.47,1.43,8.11,.38,2.63,.56,5.09,.56,7.35m.43-28.57c0,1.11-.4,2.05-1.21,2.82-.81,.77-1.8,1.16-2.92,1.16s-2.12-.39-2.94-1.16c-.82-.77-1.22-1.71-1.22-2.82s.39-2.09,1.18-2.89c.78-.8,1.78-1.19,2.97-1.19,1.12,0,2.1,.4,2.92,1.19,.81,.79,1.21,1.76,1.21,2.89m-2.62,0c0-.39-.16-.72-.45-1.01-.3-.29-.66-.43-1.06-.43s-.75,.14-1.07,.42c-.3,.28-.45,.62-.45,1.03,0,.39,.15,.72,.45,.99,.32,.28,.66,.42,1.07,.42,.39,0,.74-.14,1.04-.42,.31-.27,.47-.61,.47-.99" fill="#00a95f"/><rect x="386.59" y="13.87" width="22.63" height="8.12" fill="#00a95f"/></g></g></g></svg>