<svg xmlns="http://www.w3.org/2000/svg" width="198.41" height="16.01" viewBox="0 0 198.41 16.01"><g transform="translate(0 0.01)"><path d="M11.13,1.2h5.38a10.682,10.682,0,0,1-5.09,8.23l-1.17,6.46H4.86l.95-5.44H0L.7,6.64H5.07A6.783,6.783,0,0,0,11.13,1.2" fill="#e60012"/><path d="M30.25,6.83l-.8,4.2h6.51l.81-4.2Z" fill="#e60012"/><path d="M52.21,6.83l-.81,4.2h6.52l.81-4.2Z" fill="#e60012"/><path d="M88.35,6.83l-.81,4.2h6.52l.8-4.2Z" fill="#e60012"/><path d="M24.97,6.83c-1.43-.16-2.26-1.08-2.2-1.37l.78-4.25H18.2L15.59,15.87h5.35l1.07-6.06a7.1,7.1,0,0,0,3.47,1.22h3l.83-4.2Z" fill="#e60012"/><path d="M83.16,6.83c-1.44-.16-2.27-1.08-2.2-1.37l.78-4.25H76.39L73.77,15.87h5.35l1.07-6.06a7.132,7.132,0,0,0,3.47,1.22h3l.82-4.2H83.15Z" fill="#e60012"/><path d="M38.28,1.69l-.61,3.24H46.5l-.35,1.9H37.72L37.14,10h8.42l-.37,2h-8.8l-.59,3.28H49.56l2.51-13.6Z" fill="#e60012"/><path d="M66.94,2.96,67.36.5H62.74l-.42,2.46H59.68l-.62,3.4h2.69L61.58,7.4a6.689,6.689,0,0,1-3.34,4.72l-.59,3.64a8.863,8.863,0,0,0,5.21-2.18A11.22,11.22,0,0,0,66.2,7.39l.18-1.04h2.51l-.79,4.52c-.16.72-.39,1.25-1.02,1.25H65.84l-.64,3.51H69a3.435,3.435,0,0,0,3.21-2.97l1.75-9.71h-7Z" fill="#e60012"/><path d="M82.93,1.22l-.49,2.85h2.19l.49-2.85Z" fill="#e60012"/><path d="M85.93,1.22l-.49,2.85h2.2l.49-2.85Z" fill="#e60012"/><path d="M114.57,13.85l-4.69-1.98V9.61c-.5.37-1,.7-1.47.98v5.23h-3.75V12.37q-1.29.45-2.76.81c-.97.24-2,.43-3.09.59V10a20.343,20.343,0,0,0,6.49-1.71,9.7,9.7,0,0,0,4.11-3.05H98.69V1.59h5.97V.47h3.75V1.59h5.6V3.83a4.134,4.134,0,0,1-.61,1.82,11.315,11.315,0,0,1-2.21,2.82l3.37,1.42v3.96Z" fill="#00a95f"/><path d="M119.02,11.26h-3l-.49-5.33h2.91l.58,5.33Zm8.54-2.9q0,3.585-1.76,5.33-1.98,1.95-6.44,1.95H115.9V12.99h3.46c1.99,0,3.36-.38,4.11-1.13a4.916,4.916,0,0,0,.98-3.5V5.71h3.12V8.36Zm-4.68,2.9h-3l-.45-5.33h2.89Z" fill="#00a95f"/><path d="M142.74,10.8a31.189,31.189,0,0,1-5.65-.49,19.652,19.652,0,0,1-4.47-1.3v6.85h-3.75V.47h3.75V5.1a17.964,17.964,0,0,0,5.04,1.51,30.375,30.375,0,0,0,5.08.47v3.73Z" fill="#00a95f"/><path d="M158.6,16l-5.38-3.66a16.393,16.393,0,0,1-4.63,2.45,17.625,17.625,0,0,1-5.76.96V12.11a14.114,14.114,0,0,0,4.739-.82,10.167,10.167,0,0,0,4.091-2.47,5.817,5.817,0,0,0,1.73-4.17h-10V.98h14.04V4.94a7.074,7.074,0,0,1-.4,2.32,11.225,11.225,0,0,1-1.12,2.25l2.71,1.8V16Z" fill="#00a95f"/><rect width="10.75" height="3.94" transform="translate(159.92 6.72)" fill="#00a95f"/><path d="M177.17.86a45.2,45.2,0,0,1-.81,7.04,55.6,55.6,0,0,1-1.87,7.93h-3.86a62.314,62.314,0,0,0,1.93-8.02,42.744,42.744,0,0,0,.82-6.95h3.79Zm9.36,14.97h-3.81a32.781,32.781,0,0,0-.48-5.32q-.39-2.22-1.17-5.24Q180.5,3.1,179.78.86h2.4a2.061,2.061,0,0,0-.25,1.1,2.623,2.623,0,0,0,.75,1.93,2.676,2.676,0,0,0,2.02.76c.41,1.69.7,2.92.87,3.68.29,1.34.52,2.65.7,3.93a25.716,25.716,0,0,1,.27,3.56m.21-13.85a1.839,1.839,0,0,1-.59,1.37,2,2,0,0,1-1.41.56,2.02,2.02,0,0,1-1.42-.56,1.788,1.788,0,0,1-.59-1.37,1.925,1.925,0,0,1,.57-1.4,2.04,2.04,0,0,1,2.85,0,1.888,1.888,0,0,1,.59,1.4m-1.27,0a.677.677,0,0,0-.22-.49.717.717,0,0,0-.52-.21.788.788,0,0,0-.52.2.632.632,0,0,0-.22.5.606.606,0,0,0,.22.48.724.724,0,0,0,.52.2.763.763,0,0,0,.51-.2.616.616,0,0,0,.23-.48" fill="#00a95f"/><rect width="10.97" height="3.94" transform="translate(187.44 6.72)" fill="#00a95f"/></g></svg>