<svg xmlns="http://www.w3.org/2000/svg" xmlns:xlink="http://www.w3.org/1999/xlink" width="11" height="16" viewBox="0 0 11 16"><defs><clipPath id="a"><rect width="11" height="16" fill="none"/></clipPath></defs><g clip-path="url(#a)"><path d="M9.549,4.026a1.458,1.458,0,0,0-1.226.669v-2.7a1.391,1.391,0,0,0-2-1.245,1.4,1.4,0,0,0-2.47,0A1.375,1.375,0,0,0,3.24.6,1.4,1.4,0,0,0,1.882,1.683,1.458,1.458,0,0,0,1.394,1.6,1.391,1.391,0,0,0,0,2.98S0,9.6,0,9.6A7.728,7.728,0,0,0,1.317,14.16,4.917,4.917,0,0,0,5.459,16a4.879,4.879,0,0,0,4.269-2.04A8.923,8.923,0,0,0,11,8.838V5.467A1.446,1.446,0,0,0,9.549,4.026m.9,4.811a8.4,8.4,0,0,1-1.174,4.811,4.358,4.358,0,0,1-3.818,1.8,4.391,4.391,0,0,1-3.706-1.624,7.161,7.161,0,0,1-1.2-4.193c0-.014,0-6.655,0-6.655a.84.84,0,0,1,.842-.839.857.857,0,0,1,.451.131v5.3a.276.276,0,0,0,.551,0V1.99a.84.84,0,0,1,1.3-.7c0,.036,0,.066,0,.1V6.95a.275.275,0,0,0,.549,0V1.386a.946.946,0,0,1,.059-.3h0A.855.855,0,0,1,5.087.548a.842.842,0,0,1,.787.542,1.366,1.366,0,0,0-.336.9V6.926a.275.275,0,0,0,.549,0V1.991a.837.837,0,0,1,.276-.619h0a.833.833,0,0,1,.567-.22.843.843,0,0,1,.844.841V7.219a.212.212,0,0,0,.007.054.433.433,0,0,0,.863-.054V5.467a.9.9,0,0,1,1.8,0Z" transform="translate(0 0)" fill="#f4b200"/><path d="M9.549,4.026a1.458,1.458,0,0,0-1.226.669v-2.7a1.391,1.391,0,0,0-2-1.245,1.4,1.4,0,0,0-2.47,0A1.375,1.375,0,0,0,3.24.6,1.4,1.4,0,0,0,1.882,1.683,1.458,1.458,0,0,0,1.394,1.6,1.391,1.391,0,0,0,0,2.98S0,9.6,0,9.6A7.728,7.728,0,0,0,1.317,14.16,4.917,4.917,0,0,0,5.459,16a4.879,4.879,0,0,0,4.269-2.04A8.923,8.923,0,0,0,11,8.838V5.467A1.446,1.446,0,0,0,9.549,4.026m.9,4.811a8.4,8.4,0,0,1-1.174,4.811,4.358,4.358,0,0,1-3.818,1.8,4.391,4.391,0,0,1-3.706-1.624,7.161,7.161,0,0,1-1.2-4.193c0-.014,0-6.655,0-6.655a.84.84,0,0,1,.842-.839.857.857,0,0,1,.451.131v5.3a.276.276,0,0,0,.551,0V1.99a.84.84,0,0,1,1.3-.7c0,.036,0,.066,0,.1V6.95a.275.275,0,0,0,.549,0V1.386a.946.946,0,0,1,.059-.3h0A.855.855,0,0,1,5.087.548a.842.842,0,0,1,.787.542,1.366,1.366,0,0,0-.336.9V6.926a.275.275,0,0,0,.549,0V1.991a.837.837,0,0,1,.276-.619h0a.833.833,0,0,1,.567-.22.843.843,0,0,1,.844.841V7.219a.212.212,0,0,0,.007.054.433.433,0,0,0,.863-.054V5.467a.9.9,0,0,1,1.8,0Z" transform="translate(0 0)" fill="#1a1311"/><path d="M21.162,16.169a.9.9,0,0,0-.9.9v1.752a.433.433,0,0,1-.863.054.212.212,0,0,1-.007-.054V13.59a.843.843,0,0,0-.844-.841.833.833,0,0,0-.567.22h0a.837.837,0,0,0-.276.619v4.935a.275.275,0,0,1-.549,0V13.59a1.366,1.366,0,0,1,.336-.9.842.842,0,0,0-.787-.542.854.854,0,0,0-.789.534h0a.948.948,0,0,0-.058.3V18.55a.275.275,0,0,1-.549,0V12.984c0-.034,0-.064,0-.1a.84.84,0,0,0-1.3.7v5.582a.276.276,0,0,1-.551,0v-5.3a.857.857,0,0,0-.451-.131.84.84,0,0,0-.842.839s0,6.64,0,6.655a7.162,7.162,0,0,0,1.2,4.193,4.391,4.391,0,0,0,3.706,1.624,4.358,4.358,0,0,0,3.818-1.8,8.4,8.4,0,0,0,1.174-4.811v-3.37a.9.9,0,0,0-.9-.9" transform="translate(-11.613 -11.599)" fill="#ffba00"/><path d="M172.98,232.4a1.689,1.689,0,0,1,.267.135.978.978,0,0,0-.115.182,2.135,2.135,0,0,0-.259-.138Z" transform="translate(-165.029 -221.916)" fill="#1a1311"/><path d="M123.568,282.059l.006-.013a1.127,1.127,0,0,1,.113-.188l.005-.009-.01-.007a1.624,1.624,0,0,0-.287-.173l-.008-.005-.005.01-.106.2.009.007a1.423,1.423,0,0,1,.27.173Z" transform="translate(-117.682 -268.958)" fill="#1a1311"/><path d="M124.35,291.132l-.015-.013,0,.018a2.082,2.082,0,0,1-.228.527l-.005.007.195.154a.05.05,0,0,0,.037.013.028.028,0,0,0,.027-.03.119.119,0,0,0-.014-.049,3.953,3.953,0,0,0,.184-.467l0-.007v0l-.006,0a.809.809,0,0,1-.174-.146" transform="translate(-118.467 -277.986)" fill="#1a1311"/><path d="M125.248,272.967l-.009,0,0,.006-.133.183.01.01a2.2,2.2,0,0,1,.232.2l.01.01.022-.036.026-.042.089-.125-.006-.006a1.316,1.316,0,0,0-.236-.192" transform="translate(-119.424 -260.649)" fill="#1a1311"/><path d="M133.76,274.63h.3v.134l-.3,0,0,.583v0l0,.523h.214v-.049c.019,0,.549,0,.571,0v.049h.21v-1.11h-.323v-.134h.337v-.2H133.76Zm.783,1.007h-.573v-.083l.573,0Zm-.113-.688h.113v.195h-.012c-.077,0-.1,0-.1-.044Zm-.226-.32h.092v.135H134.2Zm0,.32h.091l0,.276a.092.092,0,0,0,.1.1h.15v.075h-.572v-.143a.278.278,0,0,1,.112.082.825.825,0,0,0,.121-.392m-.155.119a.187.187,0,0,1-.077.121v-.239h.091a.548.548,0,0,1-.014.119" transform="translate(-127.688 -262.053)" fill="#1a1311"/><path d="M82.721,273.863a1.475,1.475,0,0,1-.1-.415v-.012l.007,0c.01,0,.03-.012.03-.025s-.006-.008-.022-.007c0,0-.177-.01-.2-.009a1.956,1.956,0,0,1-.013.345.7.7,0,0,1-.232.415l-.013.011,0-.016a1.114,1.114,0,0,0-.132-.282l-.015-.017h.121v-.341a.288.288,0,0,1,.143.082,1.049,1.049,0,0,0,.141-.3h.293l0,.01c0,.043-.044.19-.056.235a.667.667,0,0,1,.165.065l.012.009.005-.014a3.854,3.854,0,0,0,.1-.43v-.006l-.09-.08H82.5c0-.023.025-.116.029-.127s.035,0,.035-.026a.03.03,0,0,0-.032-.029l-.184-.04a1.93,1.93,0,0,1-.168.556l-.026.036v-.165h-.188v-.062a.026.026,0,0,0,.027-.026c0-.012-.008-.018-.025-.019l-.169-.007s.04-.048.093-.107a1.043,1.043,0,0,0,.229.209l.01-.018a.686.686,0,0,1,.107-.148,1.737,1.737,0,0,1-.219-.181s.014-.011.014-.017-.008-.023-.03-.028l-.2-.044,0,.008a1.074,1.074,0,0,1-.148.184.742.742,0,0,1-.221.17l-.015.011.015.011a.468.468,0,0,1,.128.152c0,.007,0,.724,0,.737l-.105.027.049.193c0,.016.009.037.031.037a.059.059,0,0,0,.038-.022s.343-.108.4-.123l.025.1.131-.045a1.126,1.126,0,0,1,.11.118l0,.007.009-.006a.79.79,0,0,0,.3-.378,1.049,1.049,0,0,0,.243.372l.007.005.015-.017.136-.121.027-.022-.008-.008a1.092,1.092,0,0,1-.251-.359m-.754-.441v.1h-.2v-.1Zm-.171-.249v.109l-.122,0Zm-.032.427h.2v.1h-.2Zm.1.317c0,.006.038.078.048.1a.828.828,0,0,1-.15.041v-.215h.247l-.144.069" transform="translate(-77.718 -260.529)" fill="#1a1311"/><path d="M53.369,191.424c.267,0,.577-.123.577-.46a.393.393,0,0,0-.29-.375l-.338-.091-.056-.013c-.123-.034-.139-.1-.139-.143,0-.134.165-.145.217-.145.166,0,.252.069.262.208l0,.033s.3,0,.3,0V190.4c0-.277-.224-.465-.558-.463-.256,0-.531.134-.532.431a.377.377,0,0,0,.327.375l.181.048c.09.023.162.042.222.063a.13.13,0,0,1,.093.137c0,.109-.1.173-.256.172-.119,0-.313-.033-.313-.257v-.034h-.307l0,.033c0,.322.229.517.6.517" transform="translate(-50.372 -181.37)" fill="#1a1311"/><path d="M83.349,192.016s.306,0,.306,0v-1.154h.435v-.272s-1.17,0-1.173,0v.272h.431Z" transform="translate(-79.155 -181.994)" fill="#1a1311"/><path d="M113.3,190.687a.688.688,0,1,0-.684.743.683.683,0,0,0,.684-.743m-1.066,0c0-.225.1-.485.383-.485s.379.26.381.485-.1.482-.382.483-.383-.26-.382-.483" transform="translate(-106.849 -181.376)" fill="#1a1311"/><path d="M149.994,191.041c0-.135-.046-.454-.5-.454h-.634v1.425s.3,0,.3,0v-.521s.329,0,.329,0a.5.5,0,0,0,.377-.129.436.436,0,0,0,.122-.322m-.511.189h-.318v-.381h.32c.14,0,.2.06.2.19a.185.185,0,0,1-.206.191" transform="translate(-142.107 -181.99)" fill="#1a1311"/><path d="M181.289,215.774v-.3h-.321v.3s.322,0,.322,0" transform="translate(-172.755 -205.752)" fill="#1a1311"/><path d="M181.386,191.585s.065-.553.066-.558V190.6s-.3,0-.3,0,0,.423,0,.423.068.563.068.563Z" transform="translate(-172.928 -182.002)" fill="#1a1311"/><path d="M170.35,240.448a1.927,1.927,0,0,1,.275.151,1.647,1.647,0,0,0-.118.2,1.7,1.7,0,0,0-.269-.156Z" transform="translate(-162.514 -229.602)" fill="#1a1311"/><path d="M93.8,232.584a.952.952,0,0,1-.1.182.835.835,0,0,0-.129-.057,1.256,1.256,0,0,1-.128.364.92.92,0,0,0-.2-.1,1.08,1.08,0,0,0,.138-.581v-.283h.746c0-.029,0-.059,0-.084h-.8v-.164h.245v-.235l.228.01c.023,0,.03.008.03.021s-.012.028-.039.038v.166h.156v-.292l.221.013c.018,0,.037,0,.037.021s-.009.025-.044.041v.011h.436v.138h-.436v.068h.626v.164h-.137a.62.62,0,0,1,.048.084h.071v.156h-.2l.113.054c.013.007.026.013.026.026s-.02.023-.039.028a1.49,1.49,0,0,1-.177.33c.028.05.084.136.118.136s.052-.164.053-.191a.483.483,0,0,0,.177.109c-.041.334-.131.327-.184.327-.142,0-.262-.159-.3-.217a1.213,1.213,0,0,1-.288.213.558.558,0,0,0-.127-.142.508.508,0,0,1-.218.028.461.461,0,0,0-.036-.178.489.489,0,0,0,.107.017c.023,0,.019-.01.019-.038Zm.176.245c0,.02,0,.061-.024.072a1.1,1.1,0,0,0,.3-.215,1.432,1.432,0,0,1-.113-.422h-.538v.127a1.644,1.644,0,0,1-.023.3,1.072,1.072,0,0,0,.091-.19l.13.05v-.1h-.147v-.124h.453v.124H93.98v.1l.135-.052a.609.609,0,0,1,.074.182.6.6,0,0,0-.139.078,1.035,1.035,0,0,0-.07-.2Zm.38-.8c-.008.01-.01.007-.031.011v.073h.184a.8.8,0,0,0-.043-.084Zm-.021.239a.988.988,0,0,0,.051.23,1.1,1.1,0,0,0,.1-.23Z" transform="translate(-89.014 -221.123)" fill="#1a1311"/><path d="M171.1,249.423a2.313,2.313,0,0,0,.218-.578.585.585,0,0,0,.2.137,5.048,5.048,0,0,1-.167.5.113.113,0,0,1,.016.044.015.015,0,0,1-.016.013.045.045,0,0,1-.021,0Z" transform="translate(-163.334 -237.62)" fill="#1a1311"/><path d="M181.423,233.076V232.9l.113.015c.026,0,.034.008.034.016s-.016.021-.036.026v.268h-.405v.1h-.113v-.43l.113.011c.015,0,.033.006.033.02s-.01.018-.033.026v.12h.057v-.255h-.232v.664h-.2v-.83h.436v-.086h-.452v-.162h.252v-.095H180.8v-.172h.183V232l.219.011c.018,0,.027,0,.027.011s-.015.03-.04.037v.076h.158V232l.226,0c.018,0,.024,0,.024.013s-.01.028-.039.036v.082h.2v.172h-.2v.095h.252v.162h-.449v.086h.425v.667c0,.161-.074.176-.277.174a.644.644,0,0,0-.073-.219.659.659,0,0,0,.122.012c.034,0,.039-.007.039-.049v-.42h-.236v.255Zm-.23-.67h.156v-.095h-.156Z" transform="translate(-172.532 -221.538)" fill="#1a1311"/><path d="M134.394,232.876a1.227,1.227,0,0,1-.3-.318h.488v-.214h-.592v-.173h.512v-.22h-.513v-.107c.019-.012.029-.027.029-.04s-.025-.028-.041-.028l-.234,0v.18h-.516v.219h.516v.172h-.6v.214h.481a1.207,1.207,0,0,1-.186.234,1.166,1.166,0,0,1-.316.22l-.019.01.017.011a.462.462,0,0,1,.165.179l0,.008.008-.005a.735.735,0,0,0,.208-.143,1.365,1.365,0,0,0,.232-.26v.458h.247v-.458a1.226,1.226,0,0,0,.139.164,1.582,1.582,0,0,0,.306.247l.01,0,.007-.009a.578.578,0,0,1,.166-.168l.018-.01-.02-.008a1.156,1.156,0,0,1-.225-.153" transform="translate(-127.071 -221.317)" fill="#1a1311"/><path d="M65.967,233.818c0,.161-.039.676-.562.676a.512.512,0,0,1-.445-.216,1.01,1.01,0,0,1-.118-.5c0-.161.039-.676.564-.676.493,0,.562.446.562.72m-.812-.022c0,.055,0,.444.25.444s.248-.387.248-.444,0-.445-.248-.445-.25.384-.25.445" transform="translate(-61.9 -222.584)" fill="#1a1311"/><path d="M37.875,234.467H36.741c.022-.294.187-.414.545-.656.272-.184.272-.223.272-.294,0-.126-.135-.158-.223-.158-.228,0-.251.161-.258.27h-.312a.5.5,0,0,1,.1-.334.574.574,0,0,1,.467-.188c.386,0,.526.211.526.4a.4.4,0,0,1-.074.23,2.47,2.47,0,0,1-.444.347.933.933,0,0,0-.172.129h.7Z" transform="translate(-35.074 -222.593)" fill="#1a1311"/></g></svg>