<svg xmlns="http://www.w3.org/2000/svg" width="64" height="64" viewBox="0 0 64 64"><rect width="64" height="64" fill="none"/><g transform="translate(0.337 0.383)"><path d="M31.66,57.079a95.6,95.6,0,0,1-17.736-1.488,27.625,27.625,0,0,1-5.5-1.572,7.337,7.337,0,0,1-1.863-1.107,2.988,2.988,0,0,1-1.16-2.3c0-1.753.788-2.911,1.785-4.378a20.32,20.32,0,0,0,2.769-5.312,35.166,35.166,0,0,0,1.517-11.265V25.169a20.188,20.188,0,0,1,40.373,0v4.491a35.166,35.166,0,0,0,1.517,11.265,20.312,20.312,0,0,0,2.767,5.31c1,1.469,1.787,2.627,1.787,4.38a2.988,2.988,0,0,1-1.16,2.3,7.337,7.337,0,0,1-1.863,1.107,27.625,27.625,0,0,1-5.5,1.572A95.6,95.6,0,0,1,31.66,57.079ZM9.443,50.126a22.7,22.7,0,0,0,6.624,1.844A96.912,96.912,0,0,0,31.66,53.13a96.912,96.912,0,0,0,15.592-1.16,22.7,22.7,0,0,0,6.624-1.844,9.755,9.755,0,0,0-1.011-1.669l0-.005A24.333,24.333,0,0,1,49.624,42.2,38.956,38.956,0,0,1,47.9,29.659V25.169a16.239,16.239,0,0,0-32.475,0v4.491A38.956,38.956,0,0,1,13.7,42.2a24.334,24.334,0,0,1-3.238,6.256l0,.005A9.754,9.754,0,0,0,9.443,50.126Z" transform="translate(0 -0.072)"/><g transform="translate(23.252 52.883)"><path d="M25.473,53.574q.055,0,.111,0c2.054.114,4.176.172,6.306.172s4.247-.057,6.307-.171a1.974,1.974,0,0,1,2.079,1.854c0,.025,0,.05,0,.075.007.106.016.237.016.391a8.408,8.408,0,1,1-16.816,0c0-.154.009-.285.016-.39,0-.025,0-.051.005-.076A1.975,1.975,0,0,1,25.473,53.574ZM31.891,57.7c-1.378,0-2.753-.023-4.111-.07a4.459,4.459,0,0,0,8.221,0C34.642,57.674,33.267,57.7,31.891,57.7Z" transform="translate(-23.483 -53.574)"/></g><g transform="translate(26.825 -0.382)"><path d="M34.8,9.333a1.974,1.974,0,0,1-.3-.024,16.468,16.468,0,0,0-5.112,0A1.974,1.974,0,0,1,27.1,7.359V4.451a4.834,4.834,0,0,1,9.669,0V7.359A1.974,1.974,0,0,1,34.8,9.333Zm-2.86-4.172q.441,0,.886.02V4.451a.886.886,0,0,0-1.771,0v.729Q31.5,5.161,31.937,5.161Z" transform="translate(-27.103 0.382)"/></g></g></svg>