<svg xmlns="http://www.w3.org/2000/svg" width="40" height="40" viewBox="0 0 40 40"><rect width="39.637" height="40" transform="translate(0.276)" fill="none"/><g transform="translate(0 3.09)"><path d="M33.046,29.171H10.071A1.242,1.242,0,0,1,8.85,28.132L5.339,7.445H.794a1.25,1.25,0,0,1,0-2.5H5.82a1.907,1.907,0,0,1,1.88,1.6l3.415,20.124h21.93a.617.617,0,0,0,.6-.487l3.458-15.425a1.239,1.239,0,1,1,2.416.552L36.066,26.735a3.139,3.139,0,0,1-1.087,1.752A3.09,3.09,0,0,1,33.046,29.171Z" transform="translate(0.445 -4.945)" fill="#fff"/><g transform="translate(14.535 28.606)"><ellipse cx="2.168" cy="2.187" rx="2.168" ry="2.187" fill="#fff"/><ellipse cx="2.168" cy="2.187" rx="2.168" ry="2.187" transform="translate(12.383)" fill="#fff"/></g><path d="M38.823,43.11H17.3a3.081,3.081,0,0,1-2.022-.758,3.136,3.136,0,0,1-1.041-1.9l-1.216-8.208a1.239,1.239,0,1,1,2.45-.37l1.216,8.208a.618.618,0,0,0,.612.533H38.823a1.25,1.25,0,0,1,0,2.5Z" transform="translate(-4.677 -14.642)" fill="#fff"/></g></svg>