<svg xmlns="http://www.w3.org/2000/svg" width="51" height="51" viewBox="0 0 51 51"><g transform="translate(-323 -304)"><circle cx="25.5" cy="25.5" r="25.5" transform="translate(323 304)" fill="#fff"/><path d="M25.5,1a24.507,24.507,0,0,0-9.536,47.075A24.507,24.507,0,0,0,35.036,2.925,24.346,24.346,0,0,0,25.5,1m0-1A25.5,25.5,0,1,1,0,25.5,25.5,25.5,0,0,1,25.5,0Z" transform="translate(323 304)" fill="#ccc"/><g transform="translate(335 317)"><rect width="28" height="28" fill="none"/><path d="M14.729,28.407a2.316,2.316,0,0,1-1.565-.611c-1.015-.927-1.993-1.8-2.856-2.565l0,0,0,0a54.823,54.823,0,0,1-6.356-6.238,10.857,10.857,0,0,1-2.689-6.953A9.311,9.311,0,0,1,3.474,5.838a7.51,7.51,0,0,1,5.7-2.586,7.021,7.021,0,0,1,4.508,1.621,8.711,8.711,0,0,1,1.051,1.008A8.7,8.7,0,0,1,15.78,4.873a7.023,7.023,0,0,1,4.508-1.621,7.51,7.51,0,0,1,5.7,2.586A9.309,9.309,0,0,1,28.2,12.033a10.854,10.854,0,0,1-2.688,6.953,54.821,54.821,0,0,1-6.358,6.24c-.9.8-1.871,1.665-2.862,2.57A2.314,2.314,0,0,1,14.729,28.407Zm-3.255-4.482c.867.771,1.849,1.645,2.871,2.579a.558.558,0,0,0,.767,0c1-.912,1.97-1.778,2.879-2.586a53.777,53.777,0,0,0,6.151-6.02,9.2,9.2,0,0,0,2.309-5.865A7.564,7.564,0,0,0,24.672,7,5.782,5.782,0,0,0,20.288,5a5.315,5.315,0,0,0-3.409,1.232A7.438,7.438,0,0,0,15.449,7.8a.875.875,0,0,1-1.439,0,7.438,7.438,0,0,0-1.431-1.562A5.313,5.313,0,0,0,9.17,5,5.782,5.782,0,0,0,4.786,7a7.566,7.566,0,0,0-1.779,5.037A9.206,9.206,0,0,0,5.316,17.9a53.792,53.792,0,0,0,6.15,6.019l.005,0Z" transform="translate(-0.707 -1.83)" fill="#666"/></g></g></svg>