<svg xmlns="http://www.w3.org/2000/svg" width="51" height="51" viewBox="0 0 51 51"><g transform="translate(-323 -304)"><circle cx="25.5" cy="25.5" r="25.5" transform="translate(323 304)" fill="#fff"/><path d="M25.5,1a24.507,24.507,0,0,0-9.536,47.075A24.507,24.507,0,0,0,35.036,2.925,24.346,24.346,0,0,0,25.5,1m0-1A25.5,25.5,0,1,1,0,25.5,25.5,25.5,0,0,1,25.5,0Z" transform="translate(323 304)" fill="#ccc"/><g transform="translate(335 317)"><rect width="28" height="28" fill="none"/><path d="M11.909,24.542c-1.015-.927-1.993-1.8-2.857-2.563,0,0,0,0,0,0l0,0A54.759,54.759,0,0,1,2.69,15.733,10.853,10.853,0,0,1,0,8.781,9.314,9.314,0,0,1,2.218,2.588,7.515,7.515,0,0,1,7.914,0a7.026,7.026,0,0,1,4.508,1.621,8.846,8.846,0,0,1,1.051,1.01,8.8,8.8,0,0,1,1.05-1.01A7.026,7.026,0,0,1,19.031,0a7.512,7.512,0,0,1,5.7,2.588,9.308,9.308,0,0,1,2.214,6.193,10.851,10.851,0,0,1-2.687,6.952A54.835,54.835,0,0,1,17.9,21.973c-.9.8-1.872,1.667-2.863,2.572a2.308,2.308,0,0,1-3.128,0Z" transform="translate(0.549 1.422)" fill="#53aaef"/></g></g></svg>