<svg xmlns="http://www.w3.org/2000/svg" width="18" height="18" viewBox="0 0 18 18"><g transform="translate(-292.33 -332.977)"><circle cx="9" cy="9" r="9" transform="translate(292.33 332.977)" fill="#fff"/><path d="M9,2a7,7,0,1,0,7,7A7.008,7.008,0,0,0,9,2M9,0A9,9,0,1,1,0,9,9,9,0,0,1,9,0Z" transform="translate(292.33 332.977)" fill="#53aaef"/><circle cx="5" cy="5" r="5" transform="translate(296.329 336.977)" fill="#fff"/><path d="M5,2A3,3,0,1,0,8,5,3,3,0,0,0,5,2M5,0A5,5,0,1,1,0,5,5,5,0,0,1,5,0Z" transform="translate(296.329 336.977)" fill="#53aaef"/></g></svg>