<svg xmlns="http://www.w3.org/2000/svg" width="24" height="24" viewBox="0 0 24 24"><rect width="24" height="24" fill="none"/><path d="M12.8,24.813a1.985,1.985,0,0,1-1.341-.524c-.87-.794-1.708-1.54-2.448-2.2l0,0,0,0a46.991,46.991,0,0,1-5.448-5.347,9.306,9.306,0,0,1-2.3-5.96,7.981,7.981,0,0,1,1.9-5.31A6.437,6.437,0,0,1,8.04,3.252,6.018,6.018,0,0,1,11.9,4.641a7.466,7.466,0,0,1,.9.864,7.46,7.46,0,0,1,.9-.864,6.02,6.02,0,0,1,3.864-1.389,6.437,6.437,0,0,1,4.882,2.217,7.979,7.979,0,0,1,1.9,5.31,9.3,9.3,0,0,1-2.3,5.96,46.99,46.99,0,0,1-5.45,5.348c-.776.69-1.6,1.427-2.453,2.2A1.984,1.984,0,0,1,12.8,24.813Zm-2.79-3.841c.743.661,1.584,1.41,2.461,2.21a.479.479,0,0,0,.658,0c.857-.782,1.689-1.524,2.468-2.216a46.094,46.094,0,0,0,5.272-5.16,7.888,7.888,0,0,0,1.979-5.027,6.484,6.484,0,0,0-1.525-4.317,4.956,4.956,0,0,0-3.757-1.709,4.555,4.555,0,0,0-2.922,1.056,6.375,6.375,0,0,0-1.226,1.339.75.75,0,0,1-1.233,0,6.376,6.376,0,0,0-1.227-1.339A4.554,4.554,0,0,0,8.04,4.752a4.956,4.956,0,0,0-3.757,1.71,6.485,6.485,0,0,0-1.525,4.317,7.891,7.891,0,0,0,1.979,5.027,46.107,46.107,0,0,0,5.271,5.159l0,0Z" transform="translate(-0.786 -2.033)" fill="#666"/></svg>