<svg xmlns="http://www.w3.org/2000/svg" width="16" height="16" viewBox="0 0 16 16"><rect width="16" height="16" fill="none"/><g transform="translate(7.5 0.5)"><path d="M-1.5-2h7a.5.5,0,0,1,.5.5v14a.5.5,0,0,1-.5.5h-7a.5.5,0,0,1-.5-.5v-14A.5.5,0,0,1-1.5-2ZM5-1H-1V12H5Z" transform="translate(2 2)" fill="#999"/><path d="M.833-1H-1.5A.5.5,0,0,1-2-1.5.5.5,0,0,1-1.5-2H.833a.5.5,0,0,1,.5.5A.5.5,0,0,1,.833-1Z" transform="translate(4.333 4.18)" fill="#999"/><path d="M.833-1H-1.5A.5.5,0,0,1-2-1.5.5.5,0,0,1-1.5-2H.833a.5.5,0,0,1,.5.5A.5.5,0,0,1,.833-1Z" transform="translate(4.333 6.19)" fill="#999"/><path d="M-1.5,0A.5.5,0,0,1-2-.5v-1A.5.5,0,0,1-1.5-2a.5.5,0,0,1,.5.5v1A.5.5,0,0,1-1.5,0Z" transform="translate(4.333 9)" fill="#999"/></g><g transform="translate(0.5 0.5)"><path d="M-1.5-2h7a.5.5,0,0,1,.5.5v14a.5.5,0,0,1-.5.5h-7a.5.5,0,0,1-.5-.5v-14A.5.5,0,0,1-1.5-2ZM5-1H-1V12H5Z" transform="translate(2 2)" fill="#999"/><path d="M.833-1H-1.5A.5.5,0,0,1-2-1.5.5.5,0,0,1-1.5-2H.833a.5.5,0,0,1,.5.5A.5.5,0,0,1,.833-1Z" transform="translate(4.333 4.18)" fill="#999"/><path d="M.833-1H-1.5A.5.5,0,0,1-2-1.5.5.5,0,0,1-1.5-2H.833a.5.5,0,0,1,.5.5A.5.5,0,0,1,.833-1Z" transform="translate(4.333 6.19)" fill="#999"/><path d="M-1.5,0A.5.5,0,0,1-2-.5v-1A.5.5,0,0,1-1.5-2a.5.5,0,0,1,.5.5v1A.5.5,0,0,1-1.5,0Z" transform="translate(4.333 9)" fill="#999"/></g></svg>