<svg id="b" xmlns="http://www.w3.org/2000/svg" width="23.15" height="17.994" viewBox="0 0 23.15 17.994">
  <g id="c">
    <g id="d">
      <rect id="長方形_2696" width="20.75" height="13.69" fill="#fff"/>
      <g id="グループ_6616">
        <path id="パス_918" d="M.1,0H9a4.342,4.342,0,0,1-.96,3.58,4.413,4.413,0,0,1-4.5,1.55A4.685,4.685,0,0,1,.17,1.79,5.618,5.618,0,0,1,.1,0" fill="#004097"/>
        <path id="パス_919" d="M9.63,0h5.32a8.476,8.476,0,0,1-3.17,5.14,8.551,8.551,0,0,1-5.1,1.61A8.824,8.824,0,0,1,2.15,5.28a5.228,5.228,0,0,0,4.99-.14A5.121,5.121,0,0,0,9.63,0" fill="#004097"/>
        <path id="パス_920" d="M16.17,0h4.59A11.408,11.408,0,0,1,17.8,6.61,10.922,10.922,0,0,1,11.56,9.8,10.728,10.728,0,0,1,2.69,6.91a9.857,9.857,0,0,0,5.83.87,8.467,8.467,0,0,0,6.05-3.9A9.577,9.577,0,0,0,16.17,0" fill="#004097"/>
        <path id="パス_921" d="M0,6.42a13.132,13.132,0,0,0,6.81,4.74,11.914,11.914,0,0,0,9.09-1.04,13.67,13.67,0,0,0,4.85-4.61V13.7H0V6.42" fill="#004097"/>
        <path id="パス_922" d="M0,15.45H1.47v-.87h.68v.87h1.4v.57H2.19v.93a.908.908,0,0,1-.77,1c-.44,0-1.11.01-1.11.01v-.6H.98a.5.5,0,0,0,.5-.56c.02-.39,0-.79,0-.79H0v-.56" fill="#231815"/>
        <path id="パス_923" d="M3.97,14.57v2.81c0,.4.19.6.48.61s2.29,0,2.29,0v-.61H4.8c-.16,0-.26-.14-.26-.33V16.03h2v-.54H4.55v-.91H3.96" fill="#231815"/>
        <rect id="長方形_2697" width="0.4" height="0.56" transform="translate(6.15 14.57)" fill="#231815"/>
        <rect id="長方形_2698" width="0.4" height="0.56" transform="translate(6.75 14.57)" fill="#231815"/>
        <rect id="長方形_2699" width="0.39" height="0.56" transform="translate(10.54 14.57)" fill="#231815"/>
        <rect id="長方形_2700" width="0.4" height="0.56" transform="translate(11.14 14.57)" fill="#231815"/>
        <path id="パス_924" d="M9.7,15.17H8.32a1.264,1.264,0,0,1-1.04.94v-.6c.33-.07.53-.5.59-.94h2.44a6.874,6.874,0,0,1-.12,1.9A1.845,1.845,0,0,1,8.8,17.83a4.923,4.923,0,0,1-1.43.12v-.56a4.158,4.158,0,0,0,1.24-.18c.53-.21.76-.37.92-.79H8.16v-.48H9.65a5.74,5.74,0,0,0,.05-.78" fill="#231815"/>
        <path id="パス_925" d="M10.59,16.41v-.52a6.8,6.8,0,0,0,1.29-.1,1.581,1.581,0,0,0,1.02-.64,1.779,1.779,0,0,0,.22-.59h.61c-.14.68-.2.86-.45,1.12a4.251,4.251,0,0,1-.69.53v1.7h-.64V16.34a4.944,4.944,0,0,1-1.36.06" fill="#231815"/>
        <path id="パス_926" d="M13.93,15.21h.7v-.6h.63v.57h2.06a2.61,2.61,0,0,1-.34,1.27,1.375,1.375,0,0,1-1.31.71v-.53a1.349,1.349,0,0,0,.63-.24.805.805,0,0,0,.27-.59h-1.3v2.15h-.64V15.78h-.71v-.57" fill="#231815"/>
        <path id="パス_927" d="M17.8,14.57h.61v2.02a1.237,1.237,0,0,1-.63,1.12.885.885,0,0,1-.55.16l.03-.61a.6.6,0,0,0,.44-.4,1.874,1.874,0,0,0,.08-.87c0-.34.01-1.42.01-1.42" fill="#231815"/>
        <path id="パス_928" d="M18.66,14.57h.67v2.52a.8.8,0,0,0,.67-.44,2.322,2.322,0,0,0,.23-.8h.55a2.82,2.82,0,0,1-.37,1.21,1.8,1.8,0,0,1-1.76.79V14.57" fill="#231815"/>
        <path id="パス_929" d="M21.17,12.75a.99.99,0,1,0,.99-.99A.986.986,0,0,0,21.17,12.75Zm.11,0a.885.885,0,1,1,.88.89.89.89,0,0,1-.88-.89" fill="#231815"/>
        <path id="パス_930" d="M22.64,13.39h-.19l-.38-.6H21.9v.6h-.15V12.08h.37a.437.437,0,0,1,.29.09.31.31,0,0,1,.11.25.323.323,0,0,1-.08.21.479.479,0,0,1-.22.13l.42.63Zm-.74-.73h.19a.272.272,0,0,0,.2-.07.209.209,0,0,0,.08-.16c0-.15-.09-.22-.27-.22h-.2v.45" fill="#231815"/>
        <path id="パス_931" d="M21.17,16.96a.99.99,0,1,0,.99-.99A.986.986,0,0,0,21.17,16.96Zm.11,0a.885.885,0,1,1,.88.89.89.89,0,0,1-.88-.89" fill="#231815"/>
        <path id="パス_932" d="M22.64,17.6h-.19l-.38-.59H21.9v.59h-.15V16.29h.37a.437.437,0,0,1,.29.09.31.31,0,0,1,.11.25.323.323,0,0,1-.08.21.479.479,0,0,1-.22.13l.42.63Zm-.74-.73h.19a.272.272,0,0,0,.2-.07.209.209,0,0,0,.08-.16c0-.15-.09-.22-.27-.22h-.2v.45" fill="#231815"/>
      </g>
    </g>
  </g>
</svg>
