<svg xmlns="http://www.w3.org/2000/svg" width="20" height="20" viewBox="0 0 20 20"><rect width="20" height="20" fill="none"/><g transform="translate(7.569 5.771)"><path d="M7.688-2a9.68,9.68,0,0,1,9.688,9.688,9.68,9.68,0,0,1-9.687,9.688A9.68,9.68,0,0,1-2,7.688,9.68,9.68,0,0,1,7.688-2Zm0,18.125a8.435,8.435,0,0,0,5.966-14.4A8.438,8.438,0,1,0,4.4,15.462,8.384,8.384,0,0,0,7.688,16.125Z" transform="translate(-5.257 -3.459)" fill="#b99932"/><path d="M171.856,101.072V93.958a.61.61,0,0,1,.649-.673h2.488a2.625,2.625,0,0,1,2.754,2.748,2.654,2.654,0,0,1-2.795,2.76h-1.8v2.279a.65.65,0,1,1-1.3,0Zm2.789-3.369a1.665,1.665,0,1,0,.006-3.323h-1.5V97.7Z" transform="translate(-171.856 -93.285)" fill="#b99932"/></g></svg>