<svg xmlns="http://www.w3.org/2000/svg" width="24" height="24" viewBox="0 0 24 24"><rect width="24" height="24" fill="none"/><g transform="translate(0 1.083)"><path d="M37.479,24.4a.747.747,0,0,1-.331-.077l-4.3-2.121a.75.75,0,0,1-.418-.673V15.907a.75.75,0,0,1,1.5,0v5.159l3.885,1.915a.75.75,0,0,1-.332,1.423Z" transform="translate(-20.266 -10.557)" fill="#666"/><path d="M15.992,25.047a11.079,11.079,0,0,1-9.939-6.179A.75.75,0,1,1,7.4,18.2a9.608,9.608,0,1,0-.985-4.236.75.75,0,1,1-1.5,0A11.084,11.084,0,1,1,15.992,25.047Z" transform="translate(-3.071 -2.889)" fill="#666"/><path d="M2.588,28.825l-.064,0a.75.75,0,0,1-.549-.314l-1.838-2.6a.75.75,0,1,1,1.225-.866l1.325,1.875,1.591-1.591a.75.75,0,0,1,1.061,1.061l-2.22,2.22A.75.75,0,0,1,2.588,28.825Z" transform="translate(0 -16.535)" fill="#666"/></g></svg>