<svg xmlns="http://www.w3.org/2000/svg" width="32.804" height="32.791" viewBox="0 0 32.804 32.791"><path d="M-133.914-103.378v10.357c.341-.122,1.587-.681,2.05-.92a2.7,2.7,0,0,1,2.616-2.322c2.463-.12,2.754,1.572,3.7,3.843a16.768,16.768,0,0,0,2.559,4,23.034,23.034,0,0,1,6.922-9.483,25.56,25.56,0,0,1,11.038-4.929v-.543Z" transform="translate(133.914 103.378)" fill="#ccc"/><path d="M-101.5-103.378c-.2,1.46-3.344,9.77-6.7,13.587a13.408,13.408,0,0,1-10.626,4.527,15.175,15.175,0,0,0,7.857,2.6,19.266,19.266,0,0,0,6.3-.826v3.17a24.505,24.505,0,0,1-13.691,3.277c-6.527-.247-10.736-2.359-12.15-8.3-.678-2.894.56-4.7-.807-6.487-.527-.64-1.771-.709-2.591-.744l0,21.985h32.8v-32.791Z" transform="translate(133.914 103.378)" fill="#ccc"/></svg>