<svg id="APP_icon_時間12" xmlns="http://www.w3.org/2000/svg" width="12.001" height="12" viewBox="0 0 12.001 12">
  <rect id="長方形_2160" data-name="長方形 2160" width="12" height="12" transform="translate(0.001 0.001)" fill="none"/>
  <g id="グループ_4934" data-name="グループ 4934" transform="translate(0.6 0.6)">
    <path id="パス_52" data-name="パス 52" d="M34.216,20.563a.594.594,0,0,1-.263-.062L31.7,19.391a.6.6,0,0,1-.333-.535V15.913a.6.6,0,1,1,1.193,0v2.572l1.919.946a.6.6,0,0,1-.264,1.131Z" transform="translate(-26.57 -13.51)" fill="#999"/>
    <path id="楕円形_88" data-name="楕円形 88" d="M5.4-.6a6,6,0,1,1-6,6A6.007,6.007,0,0,1,5.4-.6Zm0,10.808A4.808,4.808,0,1,0,.593,5.4,4.813,4.813,0,0,0,5.4,10.208Z" fill="#999"/>
  </g>
</svg>
