<svg id="APP_icon_音量28" xmlns="http://www.w3.org/2000/svg" xmlns:xlink="http://www.w3.org/1999/xlink" width="28" height="28" viewBox="0 0 28 28">
    <defs>
        <clipPath id="clip-path">
            <rect id="長方形_2401" width="28" height="28" fill="none" />
        </clipPath>
    </defs>
    <g id="グループ_5658" clip-path="url(#clip-path)">
        <path id="パス_893" d="M16.675,5.038a1.63,1.63,0,0,0-1.737.182l-8.18,6.788H5.192a3.359,3.359,0,0,0-3.356,3.356v2.5a3.359,3.359,0,0,0,3.356,3.355H6.758l8.18,6.787.029.023a1.608,1.608,0,0,0,.978.332,1.651,1.651,0,0,0,.731-.172,1.5,1.5,0,0,0,.852-1.346V6.383a1.5,1.5,0,0,0-.853-1.345M6.2,19.468H5.192a1.607,1.607,0,0,1-1.606-1.605v-2.5a1.608,1.608,0,0,1,1.606-1.606H6.2Zm9.579,6.961-7.829-6.5V13.294l7.829-6.5Z" transform="translate(-1.033 -2.738)" fill="#fff" />
        <path id="パス_894" d="M49.507,15.655a.875.875,0,0,0,0,1.75c1.786,0,3.3,2.416,3.3,5.276s-1.509,5.275-3.3,5.275a.875.875,0,0,0,0,1.75c2.829,0,5.045-3.086,5.045-7.025s-2.216-7.026-5.045-7.026" transform="translate(-27.355 -8.806)" fill="#fff" />
        <path id="パス_895" d="M47.5,25.052c0-2.906-1.667-5.183-3.8-5.183a.875.875,0,0,0,0,1.75c1.09,0,2.046,1.6,2.046,3.433s-.956,3.432-2.046,3.432a.875.875,0,0,0,0,1.75c2.128,0,3.8-2.276,3.8-5.182" transform="translate(-24.093 -11.176)" fill="#fff" />
    </g>
</svg>
