<svg xmlns="http://www.w3.org/2000/svg" width="120" height="120" viewBox="0 0 120 120">
  <defs>
    <clipPath id="clip-path">
      <rect id="長方形_2382" width="120" height="120" fill="none"/>
    </clipPath>
  </defs>
  <g id="グループ_5415" clip-path="url(#clip-path)">
    <path id="パス_443" d="M66.244,40.653,28.581,18.908a3.75,3.75,0,0,0-5.625,3.247V65.644a3.75,3.75,0,0,0,5.625,3.247L66.244,47.148a3.75,3.75,0,0,0,0-6.495" transform="translate(20.087 16.1)" fill="#fff"/>
    <path id="楕円形_107" d="M56.125-2A58.139,58.139,0,0,1,78.751,109.681,58.139,58.139,0,0,1,33.5,2.569,57.765,57.765,0,0,1,56.125-2Zm0,108.75a50.639,50.639,0,0,0,19.7-97.273,50.639,50.639,0,0,0-39.409,93.3A50.3,50.3,0,0,0,56.125,106.75Z" transform="translate(3.875 3.875)" fill="#fff"/>
  </g>
</svg>
