<svg id="APP_icon_カロリー12" xmlns="http://www.w3.org/2000/svg" width="12" height="12" viewBox="0 0 12 12">
  <rect id="長方形_2164" data-name="長方形 2164" width="12" height="12" transform="translate(0 0)" fill="none"/>
  <g id="グループ_4943" data-name="グループ 4943" transform="translate(1.799 0.6)">
    <path id="パス_385" data-name="パス 385" d="M12.851,13.867a5.2,5.2,0,0,1-3.374-1.144A4.122,4.122,0,0,1,8.028,9.516,6.075,6.075,0,0,1,9.115,5.834a.583.583,0,0,1,.762-.1l.287.191a4.136,4.136,0,0,1,.64-1.853,4.339,4.339,0,0,1,3.46-2.2.583.583,0,0,1,.566.725c-.2.8-.282,1.794,1.28,3.5a5.664,5.664,0,0,1,1.564,3.427,4.122,4.122,0,0,1-1.448,3.207A5.2,5.2,0,0,1,12.851,13.867ZM9.714,7.027a6.037,6.037,0,0,0-.52,2.489,2.935,2.935,0,0,0,1.035,2.317,4.04,4.04,0,0,0,2.621.868,4.04,4.04,0,0,0,2.621-.868,2.935,2.935,0,0,0,1.035-2.317,4.4,4.4,0,0,0-1.257-2.639,5.2,5.2,0,0,1-1.677-3.711A3.7,3.7,0,0,0,11.8,4.685,2.337,2.337,0,0,0,11.488,6.9a.583.583,0,0,1-.845.746Z" transform="translate(-8.628 -2.467)" fill="#999"/>
    <path id="パス_386" data-name="パス 386" d="M23.04,33.367A2.446,2.446,0,0,1,20.4,30.96a3.248,3.248,0,0,1,.6-1.981.583.583,0,0,1,.509-.194,2.5,2.5,0,0,1,.279-.619,2.4,2.4,0,0,1,1.931-1.21.583.583,0,0,1,.566.725,1.492,1.492,0,0,0,.549,1.416,3.045,3.045,0,0,1,.836,1.863A2.446,2.446,0,0,1,23.04,33.367Zm-1.37-3.152a2.939,2.939,0,0,0-.1.744A1.305,1.305,0,0,0,23.04,32.2a1.305,1.305,0,0,0,1.469-1.241,1.876,1.876,0,0,0-.529-1.074,3.136,3.136,0,0,1-.852-1.5,1.648,1.648,0,0,0-.341.394.845.845,0,0,0-.136.779.583.583,0,0,1-.845.746Z" transform="translate(-18.748 -22.982)" fill="#999"/>
  </g>
</svg>
