<svg id="APP_icon_音量ミュート28" xmlns="http://www.w3.org/2000/svg" xmlns:xlink="http://www.w3.org/1999/xlink" width="28" height="28" viewBox="0 0 28 28">
    <defs>
        <clipPath id="clip-path">
            <rect id="長方形_2404" width="28" height="28" fill="none" />
        </clipPath>
    </defs>
    <g id="グループ_5662" clip-path="url(#clip-path)">
        <path id="パス_899" d="M15.778,35.609l-7.829-6.5V23.46L5.191,21.188a3.36,3.36,0,0,0-3.356,3.356v2.5A3.359,3.359,0,0,0,5.191,30.4H6.758l8.18,6.788.029.023a1.61,1.61,0,0,0,.978.331,1.647,1.647,0,0,0,.731-.173,1.5,1.5,0,0,0,.853-1.345V30.971L15.778,29.6ZM6.2,28.648H5.191a1.607,1.607,0,0,1-1.606-1.605v-2.5a1.608,1.608,0,0,1,1.606-1.606H6.2Z" transform="translate(-1.032 -11.918)" fill="#fff" />
        <path id="パス_900" d="M27.741,25.719l-3.229-2.532c1.915-.99,3.248-3.522,3.248-6.574,0-3.939-2.216-7.026-5.045-7.026a.875.875,0,0,0,0,1.75c1.786,0,3.3,2.415,3.3,5.275,0,2.791-1.438,5.152-3.167,5.265l-.869-.682a5.6,5.6,0,0,0,2-4.583c0-2.905-1.667-5.182-3.8-5.182a.875.875,0,0,0,0,1.75c1.089,0,2.045,1.6,2.045,3.432,0,1.671-.8,3.15-1.767,3.393l-3.4-2.663V6.384a1.5,1.5,0,0,0-.853-1.345,1.631,1.631,0,0,0-1.738.182L8.215,10.409l-5.8-4.547a.875.875,0,1,0-1.08,1.377l18.2,14.267a.874.874,0,0,0,.226.177l6.9,5.413a.875.875,0,1,0,1.08-1.377M15.308,6.8v9.175L9.624,11.514Z" transform="translate(-0.563 -2.738)" fill="#fff" />
    </g>
</svg>
