<svg xmlns="http://www.w3.org/2000/svg" width="64" height="64" viewBox="0 0 64 64"><g transform="translate(856 -35)"><rect width="64" height="64" transform="translate(-856 35)" fill="none"/><g transform="translate(-855.97 37.524)"><path d="M297.151-247.209a29.516,29.516,0,0,1,29.3,26.268l2.443-3.456a1.5,1.5,0,0,1,2.089-.359,1.5,1.5,0,0,1,.36,2.091l-4.98,7.046a1.493,1.493,0,0,1-1.1.629c-.043,0-.086.006-.128.006a1.5,1.5,0,0,1-1.061-.44l-6.012-6.013a1.5,1.5,0,0,1,0-2.121,1.5,1.5,0,0,1,2.121,0l3.32,3.321a26.51,26.51,0,0,0-26.355-23.972,26.506,26.506,0,0,0-26.475,26.476,26.506,26.506,0,0,0,26.475,26.476,26.334,26.334,0,0,0,23.754-14.768,1.5,1.5,0,0,1,2.009-.68,1.5,1.5,0,0,1,.681,2.008,29.316,29.316,0,0,1-26.444,16.44,29.509,29.509,0,0,1-29.475-29.476A29.509,29.509,0,0,1,297.151-247.209Z" transform="translate(-267.676 247.209)" fill="#666"/></g></g></svg>