<svg xmlns="http://www.w3.org/2000/svg" width="10" height="10" viewBox="0 0 10 10"><rect width="10" height="10" fill="none"/><g transform="translate(0.417)"><path d="M88.49-120.88h-8.18a.5.5,0,0,1-.385-.181.5.5,0,0,1-.107-.411l1.227-6.544a.5.5,0,0,1,.491-.408h5.726a.5.5,0,0,1,.491.408l1.227,6.544a.5.5,0,0,1-.107.411A.5.5,0,0,1,88.49-120.88Zm-7.577-1h6.975l-1.039-5.544h-4.9Z" transform="translate(-79.81 130.878)" fill="#999"/><path d="M1.945-.6A2.545,2.545,0,1,1-.6,1.945,2.548,2.548,0,0,1,1.945-.6Zm0,4.09A1.545,1.545,0,1,0,.4,1.945,1.547,1.547,0,0,0,1.945,3.49Z" transform="translate(2.645 4.281)" fill="#999"/><path d="M-.1,1.218a.5.5,0,0,1-.5-.5V-.1A.5.5,0,0,1-.1-.6a.5.5,0,0,1,.5.5V.718A.5.5,0,0,1-.1,1.218Z" transform="translate(4.69 5.508)" fill="#999"/><path d="M-.1,2.036a.5.5,0,0,1-.5-.5V-.1A.5.5,0,0,1-.1-.6a.5.5,0,0,1,.5.5V1.536A.5.5,0,0,1-.1,2.036Z" transform="translate(4.69 1.418)" fill="#999"/><path d="M88.081-142.311H80.72a.5.5,0,0,1-.447-.276l-.409-.818a.5.5,0,0,1,.224-.671.5.5,0,0,1,.671.224l.271.542h6.744l.271-.542a.5.5,0,0,1,.671-.224.5.5,0,0,1,.224.671l-.409.818A.5.5,0,0,1,88.081-142.311Z" transform="translate(-79.81 144.129)" fill="#999"/></g></svg>