<svg xmlns="http://www.w3.org/2000/svg" width="24" height="24" viewBox="0 0 24 24"><g transform="translate(0.551 0.559)"><path d="M3.477,4.6a1.121,1.121,0,0,1-.8-.33L-2.67-1.08a1.125,1.125,0,0,1,0-1.591,1.125,1.125,0,0,1,1.591,0L4.273,2.682a1.125,1.125,0,0,1-.8,1.92Z" transform="translate(18.015 18.071)" fill="#666"/><path d="M7.516-2a9.529,9.529,0,0,1,8.769,5.824,9.547,9.547,0,0,1-5.064,12.5A9.521,9.521,0,0,1-2,7.535,9.542,9.542,0,0,1,3.811-1.25,9.442,9.442,0,0,1,7.516-2Zm0,17.57a8.023,8.023,0,0,0,8.016-8.035A8.009,8.009,0,1,0,4.4,14.939,7.95,7.95,0,0,0,7.516,15.57Z" transform="translate(2 2)" fill="#666"/></g><rect width="24" height="24" fill="none"/></svg>