<svg xmlns="http://www.w3.org/2000/svg" width="24" height="24" viewBox="0 0 24 24"><g transform="translate(0.36)"><rect width="23.7" height="24" transform="translate(-0.227)" fill="none"/><g transform="translate(-0.36 1.544)"><path d="M22.9,11.68H.381a.739.739,0,0,1-.629-.353A.758.758,0,0,1-.284,10.6L2.334,5.195a1.915,1.915,0,0,1,.7-.787,1.89,1.89,0,0,1,1.008-.291H19.235a1.89,1.89,0,0,1,1.008.291,1.915,1.915,0,0,1,.7.787L23.564,10.6a.758.758,0,0,1-.036.727A.739.739,0,0,1,22.9,11.68ZM1.569,10.18H21.711L19.616,5.855a.426.426,0,0,0-.382-.239H4.045a.426.426,0,0,0-.381.239Z" transform="translate(0.36 -4.116)" fill="#666"/><path d="M22.9,39.641H6.016a1.917,1.917,0,0,1-1.9-1.926V28.189a.741.741,0,1,1,1.481,0v9.525a.424.424,0,0,0,.421.426H22.9a.424.424,0,0,0,.421-.426V28.189a.741.741,0,1,1,1.481,0v9.525A1.917,1.917,0,0,1,22.9,39.641Z" transform="translate(-2.457 -18.693)" fill="#666"/><path d="M-.624-2H2.135A1.387,1.387,0,0,1,3.511-.606V6.705a.745.745,0,0,1-.741.75h-4.03A.745.745,0,0,1-2,6.705V-.606A1.387,1.387,0,0,1-.624-2ZM2.03-.5H-.519V5.955H2.03Z" transform="translate(7.362 13.487)" fill="#666"/><path d="M15.57,20.287h.01a.736.736,0,0,1,.533.229.755.755,0,0,1,.208.547c0,.028,0,.053,0,.07v.011a.741.741,0,1,1-1.481,0v-.013c0-.022,0-.043,0-.065a.755.755,0,0,1,.208-.547A.736.736,0,0,1,15.57,20.287Z" transform="translate(-9.204 -14.223)" fill="#666"/><path d="M45.975,20.287h.01a.736.736,0,0,1,.533.229.755.755,0,0,1,.208.547c0,.022,0,.044,0,.065v.013a.741.741,0,1,1-1.481,0v-.013c0-.022,0-.043,0-.065a.755.755,0,0,1,.208-.547A.736.736,0,0,1,45.975,20.287Z" transform="translate(-28.35 -14.223)" fill="#666"/><path d="M30.772,20.287h.01a.736.736,0,0,1,.533.229.755.755,0,0,1,.208.547c0,.022,0,.044,0,.065v.013a.741.741,0,1,1-1.481,0v-.011c0-.018,0-.042,0-.07a.755.755,0,0,1,.208-.547A.736.736,0,0,1,30.772,20.287Z" transform="translate(-18.777 -14.223)" fill="#666"/><path d="M.385,20.287h5.62a.745.745,0,0,1,.74.724s0,.01,0,.015c0,.025,0,.064,0,.109A3.575,3.575,0,0,1,3.2,24.721,3.575,3.575,0,0,1-.36,21.135c0-.045,0-.083,0-.109,0-.005,0-.011,0-.016A.744.744,0,0,1,.385,20.287Zm4.78,1.5H1.225a2.071,2.071,0,0,0,3.941,0Z" transform="translate(0.36 -14.223)" fill="#666"/><path d="M15.588,20.287h5.62a.745.745,0,0,1,.74.722v.013c0,.026,0,.065,0,.112a3.556,3.556,0,1,1-7.111,0c0-.047,0-.086,0-.112v-.013A.745.745,0,0,1,15.588,20.287Zm4.78,1.5H16.427a2.071,2.071,0,0,0,3.941,0Z" transform="translate(-9.212 -14.223)" fill="#666"/><path d="M30.79,20.287h5.62a.745.745,0,0,1,.74.724s0,.01,0,.015c0,.025,0,.064,0,.109a3.556,3.556,0,1,1-7.111,0c0-.045,0-.083,0-.109,0-.005,0-.011,0-.016A.744.744,0,0,1,30.79,20.287Zm4.78,1.5H31.63a2.071,2.071,0,0,0,3.941,0Z" transform="translate(-18.785 -14.223)" fill="#666"/><path d="M45.992,20.287h5.62a.745.745,0,0,1,.74.724s0,.01,0,.015c0,.025,0,.064,0,.109a3.556,3.556,0,1,1-7.111,0c0-.045,0-.083,0-.109,0-.005,0-.011,0-.016A.744.744,0,0,1,45.992,20.287Zm4.78,1.5H46.832a2.071,2.071,0,0,0,3.941,0Z" transform="translate(-28.358 -14.223)" fill="#666"/><path d="M-.6-2H3.671a1.407,1.407,0,0,1,1.4,1.414V3.665a1.407,1.407,0,0,1-1.4,1.414H-.6A1.407,1.407,0,0,1-2,3.665V-.586A1.407,1.407,0,0,1-.6-2ZM3.586-.5H-.519V3.58H3.586Z" transform="translate(14.249 13.512)" fill="#666"/></g></g></svg>