<svg xmlns="http://www.w3.org/2000/svg" width="18" height="18" viewBox="0 0 18 18"><g transform="translate(-16558 -17092)"><g transform="translate(16367 16815)"><path d="M8.128,1.549a1,1,0,0,1,1.743,0l7.29,12.96A1,1,0,0,1,16.29,16H1.71a1,1,0,0,1-.872-1.49Z" transform="translate(191 278)" fill="#fff"/><path d="M9,4.079,3.42,14H14.58L9,4.079M9,1.04a.99.99,0,0,1,.872.51l7.29,12.96A1,1,0,0,1,16.29,16H1.71a1,1,0,0,1-.872-1.49l7.29-12.96A.99.99,0,0,1,9,1.04Z" transform="translate(191 278)" fill="#53aaef"/></g><rect width="18" height="18" transform="translate(16558 17092)" fill="none"/></g></svg>