<svg xmlns="http://www.w3.org/2000/svg" width="24" height="24" viewBox="0 0 24 24"><g transform="translate(0.462)"><rect width="23.68" height="24" transform="translate(-0.291)" fill="none"/><g transform="translate(-0.462 2.428)"><path d="M-.52-2H13.629a1.492,1.492,0,0,1,1.48,1.5V8.466a1.492,1.492,0,0,1-1.48,1.5H-.52A1.492,1.492,0,0,1-2,8.466V-.5A1.492,1.492,0,0,1-.52-2ZM13.629,8.466V-.5H-.521V8.466Z" transform="translate(8.891 2)" fill="#666"/><path d="M-.31-.5h-.95A.745.745,0,0,1-2-1.25.745.745,0,0,1-1.26-2h.95a.745.745,0,0,1,.74.75A.745.745,0,0,1-.31-.5Z" transform="translate(8.065 17.596)" fill="#666"/><path d="M2.269,34.783H.836a1.309,1.309,0,0,1-1.3-1.316V31.44A4.192,4.192,0,0,1,.1,29.34l2.155-3.718a2.417,2.417,0,0,1,2.082-1.207H7.014a.75.75,0,0,1,0,1.5H4.339a.936.936,0,0,0-.806.467L1.378,30.1a2.675,2.675,0,0,0-.36,1.34v1.844H2.269a.75.75,0,0,1,0,1.5Z" transform="translate(0.462 -17.687)" fill="#666"/><path d="M.777-2A2.791,2.791,0,0,1,3.553.8,2.791,2.791,0,0,1,.777,3.6,2.791,2.791,0,0,1-2,.8,2.791,2.791,0,0,1,.777-2Zm0,4.1A1.3,1.3,0,1,0-.52.8,1.3,1.3,0,0,0,.777,2.1Z" transform="translate(3.991 15.548)" fill="#666"/><path d="M.777-2A2.791,2.791,0,0,1,3.553.8,2.791,2.791,0,0,1,.777,3.6,2.791,2.791,0,0,1-2,.8,2.791,2.791,0,0,1,.777-2Zm0,4.1A1.3,1.3,0,1,0-.52.8,1.3,1.3,0,0,0,.777,2.1Z" transform="translate(16.257 15.548)" fill="#666"/><path d="M53.45,41.013H49.819a.75.75,0,0,1,0-1.5h3.45v-3.63H50.852a.75.75,0,0,1,0-1.5h2.6a1.309,1.309,0,0,1,1.3,1.316v4A1.309,1.309,0,0,1,53.45,41.013Z" transform="translate(-30.749 -23.917)" fill="#666"/><path d="M6.106-.5H-1.26A.745.745,0,0,1-2-1.25.745.745,0,0,1-1.26-2H6.106a.745.745,0,0,1,.74.75A.745.745,0,0,1,6.106-.5Z" transform="translate(8.891 17.596)" fill="#666"/><path d="M12.136-.5H-1.26A.745.745,0,0,1-2-1.25.745.745,0,0,1-1.26-2h13.4a.745.745,0,0,1,.74.75A.745.745,0,0,1,12.136-.5Z" transform="translate(9.074 4.175)" fill="#666"/><path d="M12.136-.5H-1.26A.745.745,0,0,1-2-1.25.745.745,0,0,1-1.26-2h13.4a.745.745,0,0,1,.74.75A.745.745,0,0,1,12.136-.5Z" transform="translate(9.074 10.398)" fill="#666"/></g></g></svg>