<svg xmlns="http://www.w3.org/2000/svg" width="24" height="24" viewBox="0 0 24 24"><rect width="24" height="24" fill="none"/><g transform="translate(0.75 0.75)"><circle cx="11.25" cy="11.25" r="11.25" fill="#ef4040"/><g transform="translate(9.664 3.448)"><path d="M29.306,44.665a1.526,1.526,0,1,0,0,3.052,1.494,1.494,0,0,0,1.536-1.5A1.464,1.464,0,0,0,29.306,44.665Z" transform="translate(-27.77 -32.114)" fill="#fff"/><path d="M28.525,15.433c.083,2.271.161,4.416.161,5.659v.549a.975.975,0,0,0,.987,1.048,1.127,1.127,0,0,0,.766-.326,1.149,1.149,0,0,0,.3-.864v-.346c0-.878.058-2.318.12-3.844.071-1.749.144-3.558.144-4.821a1.262,1.262,0,0,0-1.312-1.293,1.2,1.2,0,0,0-1.272,1.232v.065C28.452,13.444,28.488,14.447,28.525,15.433Z" transform="translate(-28.177 -11.195)" fill="#fff"/></g></g></svg>